<?xml version="1.0" encoding="UTF-8"?>
<svg id="Layer_1" data-name="Layer 1" xmlns="http://www.w3.org/2000/svg" viewBox="0 0 960 960">
  <defs>
    <style>
      .cls-1 {
        fill: #ff4f00;
      }

      .cls-1, .cls-2 {
        stroke-width: 0px;
      }

      .cls-2 {
        fill: #201515;
      }
    </style>
  </defs>
  <path class="cls-2" d="M246.62,524.18l-.12-.39,78.17-71.56v-34.48h-125.4v34.48h74.9l.12.33-77.4,71.62v34.48h129.04v-34.48h-79.3Z"/>
  <path class="cls-2" d="M402.9,414.46c-14.46,0-26.25,2.18-35.36,6.54-8.49,3.8-15.64,10.07-20.52,17.98-4.67,7.97-7.61,16.83-8.61,26.01l38.05,5.35c1.38-8.11,4.13-13.85,8.26-17.24,4.69-3.54,10.48-5.33,16.35-5.06,7.72,0,13.33,2.06,16.8,6.19,3.45,4.13,5.2,9.85,5.2,17.38v3.76h-36.59c-18.62,0-32,4.13-40.14,12.39-8.13,8.26-12.19,19.16-12.18,32.7,0,13.87,4.06,24.2,12.18,30.97,8.12,6.77,18.33,10.14,30.64,10.1,15.26,0,27.01-5.25,35.22-15.75,4.85-6.45,8.32-13.84,10.18-21.7h1.38l5.24,34.48h34.48v-87.31c0-18.04-4.75-32.02-14.26-41.93-9.51-9.91-24.96-14.86-46.33-14.86ZM414.96,522.09c-5.47,4.56-12.64,6.83-21.56,6.83-7.35,0-12.46-1.29-15.32-3.86-1.4-1.22-2.5-2.73-3.25-4.42-.75-1.69-1.11-3.53-1.06-5.38-.08-1.75.19-3.49.81-5.13.61-1.64,1.55-3.13,2.76-4.39,1.31-1.23,2.85-2.18,4.54-2.79,1.69-.61,3.48-.88,5.27-.78h35.99v2.37c.07,3.36-.63,6.68-2.04,9.73-1.42,3.04-3.52,5.72-6.13,7.82Z"/>
  <path class="cls-2" d="M671.98,417.75h-40.73v140.93h40.73v-140.93Z"/>
  <path class="cls-2" d="M912.49,417.75c-11.51,0-20.58,4.06-27.21,12.18-4.76,5.84-8.38,14.46-10.86,25.87h-1.2l-5.33-38.05h-34.79v140.91h40.74v-72.26c0-9.11,2.13-16.1,6.4-20.96,4.27-4.86,12.14-7.29,23.62-7.29h15.46v-40.4h-6.83Z"/>
  <path class="cls-2" d="M792.68,422.35c-9.51-5.66-21.51-8.48-35.98-8.46-22.79,0-40.63,6.49-53.51,19.47-12.89,12.98-19.33,30.87-19.33,53.68-.33,13.79,2.68,27.45,8.77,39.83,5.58,11.03,14.26,20.18,24.98,26.32,10.79,6.24,23.62,9.36,38.51,9.37,12.87,0,23.62-1.98,32.25-5.95,8.11-3.56,15.18-9.14,20.52-16.21,5.09-6.94,8.86-14.75,11.15-23.04l-35.09-9.83c-1.48,5.39-4.32,10.32-8.26,14.29-3.97,3.96-10.61,5.95-19.92,5.95-11.08,0-19.34-3.17-24.78-9.52-3.95-4.58-6.42-11.13-7.51-19.61h96.11c.39-3.96.6-7.29.6-9.97v-8.77c.23-11.79-2.2-23.48-7.12-34.19-4.61-9.76-12.06-17.9-21.37-23.35ZM755.52,447.48c16.52,0,25.88,8.13,28.1,24.38h-58.43c.93-5.42,3.18-10.54,6.54-14.89,5.36-6.35,13.28-9.51,23.79-9.5Z"/>
  <path class="cls-2" d="M652.06,360.95c-3.06-.1-6.12.41-8.98,1.51-2.86,1.1-5.47,2.76-7.68,4.89-2.17,2.15-3.88,4.73-5.01,7.57-1.13,2.84-1.65,5.89-1.54,8.95-.11,3.08.42,6.14,1.54,9.01,1.13,2.86,2.83,5.47,5.01,7.64,2.18,2.18,4.78,3.88,7.64,5,2.87,1.13,5.93,1.65,9.01,1.54,3.06.12,6.1-.41,8.95-1.53,2.84-1.13,5.42-2.83,7.57-5.01,2.13-2.2,3.79-4.81,4.89-7.67,1.1-2.86,1.6-5.91,1.49-8.97.14-3.04-.35-6.08-1.45-8.92-1.1-2.84-2.78-5.42-4.93-7.57-2.15-2.15-4.73-3.84-7.57-4.94-2.84-1.1-5.88-1.6-8.92-1.46l-.02-.02Z"/>
  <path class="cls-2" d="M567.91,413.89c-13.87,0-25.02,4.36-33.45,13.07-6.24,6.46-10.81,16.09-13.73,28.9h-1.3l-5.33-38.05h-34.79v181.35h40.73v-74.7h1.49c1.24,4.98,2.99,9.82,5.2,14.45,3.45,7.54,9.1,13.86,16.21,18.13,7.37,4.02,15.68,6.02,24.07,5.8,17.05,0,30.04-6.64,38.96-19.92,8.92-13.28,13.38-31.82,13.38-55.6s-4.32-40.95-12.94-53.95c-8.63-12.99-21.47-19.49-38.51-19.49ZM572.04,516c-4.75,6.88-12.18,10.32-22.3,10.32-4.17.19-8.33-.61-12.12-2.35-3.8-1.73-7.13-4.35-9.72-7.63-5.27-6.62-7.9-15.68-7.89-27.19v-2.68c0-11.69,2.63-20.63,7.89-26.84,5.26-6.21,12.54-9.28,21.84-9.21,10.3,0,17.78,3.27,22.44,9.81,4.67,6.54,7,15.66,7,27.36.03,12.1-2.34,21.57-7.1,28.41h-.04Z"/>
  <path class="cls-1" d="M181.13,524.18H40.2v34.52h140.93v-34.52Z"/>
</svg>